<mxfile host="app.diagrams.net" agent="Mozilla/5.0 (Windows NT 10.0; Win64; x64) AppleWebKit/537.36 (KHTML, like Gecko) Chrome/133.0.0.0 Safari/537.36" version="26.0.16">
  <diagram name="Page-1" id="hsaw5kZA_V9LT7LFlTlA">
    <mxGraphModel dx="1257" dy="714" grid="1" gridSize="10" guides="1" tooltips="1" connect="1" arrows="1" fold="1" page="1" pageScale="1" pageWidth="1169" pageHeight="827" math="0" shadow="0">
      <root>
        <mxCell id="0" />
        <mxCell id="1" parent="0" />
        <mxCell id="DUyp_SDA0KsKm434eSB0-1" value="" style="sketch=0;pointerEvents=1;shadow=0;dashed=0;html=1;strokeColor=#006EAF;labelPosition=center;verticalLabelPosition=bottom;verticalAlign=top;align=center;fillColor=#1ba1e2;shape=mxgraph.mscae.intune.user_group;fontColor=#ffffff;" parent="1" vertex="1">
          <mxGeometry x="110" y="528.5" width="50" height="37" as="geometry" />
        </mxCell>
        <mxCell id="DUyp_SDA0KsKm434eSB0-3" value="" style="dashed=0;outlineConnect=0;html=1;align=center;labelPosition=center;verticalLabelPosition=bottom;verticalAlign=top;shape=mxgraph.weblogos.github;" parent="1" vertex="1">
          <mxGeometry x="290" y="506.25" width="80" height="78" as="geometry" />
        </mxCell>
        <mxCell id="DUyp_SDA0KsKm434eSB0-4" value="" style="outlineConnect=0;dashed=0;verticalLabelPosition=bottom;verticalAlign=top;align=center;html=1;shape=mxgraph.aws3.codepipeline;fillColor=#759C3E;gradientColor=none;" parent="1" vertex="1">
          <mxGeometry x="505" y="500.5" width="80" height="89.5" as="geometry" />
        </mxCell>
        <mxCell id="DUyp_SDA0KsKm434eSB0-5" value="" style="outlineConnect=0;dashed=0;verticalLabelPosition=bottom;verticalAlign=top;align=center;html=1;shape=mxgraph.aws3.codebuild;fillColor=#759C3E;gradientColor=none;" parent="1" vertex="1">
          <mxGeometry x="511" y="260" width="68" height="80" as="geometry" />
        </mxCell>
        <mxCell id="DUyp_SDA0KsKm434eSB0-6" value="" style="outlineConnect=0;dashed=0;verticalLabelPosition=bottom;verticalAlign=top;align=center;html=1;shape=mxgraph.aws3.codedeploy;fillColor=#759C3E;gradientColor=none;" parent="1" vertex="1">
          <mxGeometry x="750" y="504" width="70" height="82.5" as="geometry" />
        </mxCell>
        <mxCell id="DUyp_SDA0KsKm434eSB0-7" value="" style="outlineConnect=0;dashed=0;verticalLabelPosition=bottom;verticalAlign=top;align=center;html=1;shape=mxgraph.aws3.ec2;fillColor=#F58534;gradientColor=none;" parent="1" vertex="1">
          <mxGeometry x="1000" y="500.5" width="76.5" height="93" as="geometry" />
        </mxCell>
        <mxCell id="DUyp_SDA0KsKm434eSB0-8" value="&lt;font style=&quot;font-size: 22px;&quot;&gt;&lt;b&gt;USER&lt;/b&gt;&lt;/font&gt;" style="whiteSpace=wrap;html=1;gradientColor=none;strokeColor=none;" parent="1" vertex="1">
          <mxGeometry x="75" y="560" width="120" height="60" as="geometry" />
        </mxCell>
        <mxCell id="DUyp_SDA0KsKm434eSB0-13" value="" style="edgeStyle=orthogonalEdgeStyle;html=1;endArrow=block;elbow=vertical;startArrow=none;endFill=1;strokeColor=#545B64;rounded=0;strokeWidth=3;flowAnimation=1;" parent="1" target="DUyp_SDA0KsKm434eSB0-3" edge="1">
          <mxGeometry width="100" relative="1" as="geometry">
            <mxPoint x="160" y="540" as="sourcePoint" />
            <mxPoint x="250" y="380" as="targetPoint" />
            <Array as="points">
              <mxPoint x="230" y="540" />
              <mxPoint x="230" y="540" />
            </Array>
          </mxGeometry>
        </mxCell>
        <mxCell id="DUyp_SDA0KsKm434eSB0-14" value="&lt;b&gt;&lt;font style=&quot;font-size: 14px;&quot;&gt;Code Commit&lt;/font&gt;&lt;/b&gt;" style="text;html=1;align=center;verticalAlign=middle;resizable=0;points=[];autosize=1;strokeColor=none;fillColor=none;" parent="1" vertex="1">
          <mxGeometry x="170" y="500.5" width="110" height="30" as="geometry" />
        </mxCell>
        <mxCell id="DUyp_SDA0KsKm434eSB0-16" value="&lt;b&gt;&lt;font style=&quot;font-size: 22px;&quot;&gt;GitHub&lt;/font&gt;&lt;/b&gt;" style="text;html=1;align=center;verticalAlign=middle;resizable=0;points=[];autosize=1;strokeColor=none;fillColor=none;" parent="1" vertex="1">
          <mxGeometry x="280" y="590" width="100" height="40" as="geometry" />
        </mxCell>
        <mxCell id="DUyp_SDA0KsKm434eSB0-17" value="&lt;b&gt;&lt;font style=&quot;font-size: 20px;&quot;&gt;AWS&lt;/font&gt;&lt;/b&gt;&lt;div&gt;&lt;b&gt;&lt;font style=&quot;font-size: 20px;&quot;&gt;Code Pipeline&lt;/font&gt;&lt;/b&gt;&lt;/div&gt;" style="text;html=1;align=center;verticalAlign=middle;resizable=0;points=[];autosize=1;strokeColor=none;fillColor=none;" parent="1" vertex="1">
          <mxGeometry x="464" y="590" width="160" height="60" as="geometry" />
        </mxCell>
        <mxCell id="DUyp_SDA0KsKm434eSB0-18" value="&lt;font style=&quot;font-size: 20px;&quot;&gt;&lt;b&gt;AWS&amp;nbsp;&lt;/b&gt;&lt;/font&gt;&lt;div&gt;&lt;font style=&quot;font-size: 20px;&quot;&gt;&lt;b&gt;CodeDeploy&lt;/b&gt;&lt;/font&gt;&lt;/div&gt;" style="text;html=1;align=center;verticalAlign=middle;resizable=0;points=[];autosize=1;strokeColor=none;fillColor=none;" parent="1" vertex="1">
          <mxGeometry x="715" y="593.5" width="140" height="60" as="geometry" />
        </mxCell>
        <mxCell id="DUyp_SDA0KsKm434eSB0-19" value="&lt;font style=&quot;font-size: 20px;&quot;&gt;&lt;b&gt;Amazon&lt;/b&gt;&lt;/font&gt;&lt;div&gt;&lt;font style=&quot;font-size: 20px;&quot;&gt;&lt;b&gt;EC2&lt;/b&gt;&lt;/font&gt;&lt;/div&gt;" style="text;html=1;align=center;verticalAlign=middle;resizable=0;points=[];autosize=1;strokeColor=none;fillColor=none;" parent="1" vertex="1">
          <mxGeometry x="988.25" y="593.5" width="100" height="60" as="geometry" />
        </mxCell>
        <mxCell id="DUyp_SDA0KsKm434eSB0-20" value="&lt;b&gt;&lt;font style=&quot;font-size: 20px;&quot;&gt;AWS&lt;/font&gt;&lt;/b&gt;&lt;div&gt;&lt;b&gt;&lt;font style=&quot;font-size: 20px;&quot;&gt;CodeBuild&lt;/font&gt;&lt;/b&gt;&lt;/div&gt;" style="text;html=1;align=center;verticalAlign=middle;resizable=0;points=[];autosize=1;strokeColor=none;fillColor=none;" parent="1" vertex="1">
          <mxGeometry x="485" y="340" width="120" height="60" as="geometry" />
        </mxCell>
        <mxCell id="DUyp_SDA0KsKm434eSB0-21" value="&lt;font style=&quot;font-size: 18px; color: rgb(204, 0, 0);&quot;&gt;&lt;i style=&quot;&quot;&gt;&lt;b&gt;Continuous Integration&lt;/b&gt;&lt;/i&gt;&lt;/font&gt;" style="text;html=1;align=center;verticalAlign=middle;resizable=0;points=[];autosize=1;strokeColor=none;fillColor=none;" parent="1" vertex="1">
          <mxGeometry x="285" y="240" width="220" height="40" as="geometry" />
        </mxCell>
        <mxCell id="DUyp_SDA0KsKm434eSB0-23" value="&lt;font style=&quot;font-size: 15px;&quot;&gt;&lt;b&gt;check&lt;/b&gt;&lt;/font&gt;&lt;div&gt;&lt;font style=&quot;font-size: 15px;&quot;&gt;&lt;b&gt;out&lt;/b&gt;&lt;/font&gt;&lt;/div&gt;" style="whiteSpace=wrap;html=1;" parent="1" vertex="1">
          <mxGeometry x="220" y="170" width="60" height="50" as="geometry" />
        </mxCell>
        <mxCell id="DUyp_SDA0KsKm434eSB0-25" value="&lt;span style=&quot;font-size: 15px;&quot;&gt;&lt;b&gt;Build&lt;/b&gt;&lt;/span&gt;&lt;div&gt;&lt;span style=&quot;font-size: 15px;&quot;&gt;&lt;b&gt;&amp;amp; UT&lt;/b&gt;&lt;/span&gt;&lt;/div&gt;" style="whiteSpace=wrap;html=1;" parent="1" vertex="1">
          <mxGeometry x="320" y="170" width="60" height="50" as="geometry" />
        </mxCell>
        <mxCell id="DUyp_SDA0KsKm434eSB0-26" value="&lt;span style=&quot;font-size: 15px;&quot;&gt;&lt;b&gt;&amp;nbsp;Code&lt;/b&gt;&lt;/span&gt;&lt;div&gt;&lt;span style=&quot;font-size: 15px;&quot;&gt;&lt;b&gt;Scan&lt;/b&gt;&lt;/span&gt;&lt;/div&gt;" style="whiteSpace=wrap;html=1;" parent="1" vertex="1">
          <mxGeometry x="410" y="170" width="60" height="50" as="geometry" />
        </mxCell>
        <mxCell id="DUyp_SDA0KsKm434eSB0-27" value="&lt;span style=&quot;font-size: 15px;&quot;&gt;&lt;b&gt;&amp;nbsp;Image&lt;/b&gt;&lt;/span&gt;&lt;div&gt;&lt;span style=&quot;font-size: 15px;&quot;&gt;&lt;b&gt;Build&lt;/b&gt;&lt;/span&gt;&lt;/div&gt;" style="whiteSpace=wrap;html=1;" parent="1" vertex="1">
          <mxGeometry x="505" y="170" width="60" height="50" as="geometry" />
        </mxCell>
        <mxCell id="DUyp_SDA0KsKm434eSB0-29" value="&lt;span style=&quot;font-size: 15px;&quot;&gt;&lt;b&gt;&amp;nbsp;Image&lt;/b&gt;&lt;/span&gt;&lt;div&gt;&lt;span style=&quot;font-size: 15px;&quot;&gt;&lt;b&gt;Scan&lt;/b&gt;&lt;/span&gt;&lt;/div&gt;" style="whiteSpace=wrap;html=1;" parent="1" vertex="1">
          <mxGeometry x="610" y="170" width="60" height="50" as="geometry" />
        </mxCell>
        <mxCell id="DUyp_SDA0KsKm434eSB0-30" value="&lt;span style=&quot;font-size: 15px;&quot;&gt;&lt;b&gt;&amp;nbsp;Image&amp;nbsp;&lt;/b&gt;&lt;/span&gt;&lt;div&gt;&lt;span style=&quot;font-size: 15px;&quot;&gt;&lt;b&gt;Push&lt;/b&gt;&lt;/span&gt;&lt;/div&gt;" style="whiteSpace=wrap;html=1;" parent="1" vertex="1">
          <mxGeometry x="710" y="170" width="60" height="50" as="geometry" />
        </mxCell>
        <mxCell id="DUyp_SDA0KsKm434eSB0-31" value="" style="edgeStyle=orthogonalEdgeStyle;html=1;endArrow=block;elbow=vertical;startArrow=none;endFill=1;strokeColor=#545B64;rounded=0;strokeWidth=3;flowAnimation=1;" parent="1" edge="1">
          <mxGeometry width="100" relative="1" as="geometry">
            <mxPoint x="370" y="546.33" as="sourcePoint" />
            <mxPoint x="500" y="546.33" as="targetPoint" />
            <Array as="points">
              <mxPoint x="440" y="546.33" />
              <mxPoint x="440" y="546.33" />
            </Array>
          </mxGeometry>
        </mxCell>
        <mxCell id="DUyp_SDA0KsKm434eSB0-32" value="" style="edgeStyle=orthogonalEdgeStyle;html=1;endArrow=block;elbow=vertical;startArrow=none;endFill=1;strokeColor=#545B64;rounded=0;strokeWidth=3;flowAnimation=1;" parent="1" edge="1">
          <mxGeometry width="100" relative="1" as="geometry">
            <mxPoint x="590" y="544.58" as="sourcePoint" />
            <mxPoint x="740" y="545" as="targetPoint" />
            <Array as="points">
              <mxPoint x="660" y="544.58" />
              <mxPoint x="660" y="544.58" />
            </Array>
          </mxGeometry>
        </mxCell>
        <mxCell id="DUyp_SDA0KsKm434eSB0-33" value="" style="edgeStyle=orthogonalEdgeStyle;html=1;endArrow=block;elbow=vertical;startArrow=none;endFill=1;strokeColor=#545B64;rounded=0;strokeWidth=3;flowAnimation=1;" parent="1" edge="1">
          <mxGeometry width="100" relative="1" as="geometry">
            <mxPoint x="838.25" y="546.33" as="sourcePoint" />
            <mxPoint x="988.25" y="546.75" as="targetPoint" />
            <Array as="points">
              <mxPoint x="908.25" y="546.33" />
              <mxPoint x="908.25" y="546.33" />
            </Array>
          </mxGeometry>
        </mxCell>
        <mxCell id="DUyp_SDA0KsKm434eSB0-34" value="" style="edgeStyle=orthogonalEdgeStyle;html=1;endArrow=block;elbow=vertical;startArrow=none;endFill=1;strokeColor=#545B64;rounded=0;strokeWidth=3;entryX=0.494;entryY=1.017;entryDx=0;entryDy=0;entryPerimeter=0;flowAnimation=1;" parent="1" target="DUyp_SDA0KsKm434eSB0-20" edge="1">
          <mxGeometry width="100" relative="1" as="geometry">
            <mxPoint x="544" y="490" as="sourcePoint" />
            <mxPoint x="540" y="457.7133333333331" as="targetPoint" />
            <Array as="points">
              <mxPoint x="544" y="457" />
            </Array>
          </mxGeometry>
        </mxCell>
        <mxCell id="DUyp_SDA0KsKm434eSB0-36" value="" style="edgeStyle=orthogonalEdgeStyle;html=1;endArrow=openThin;elbow=vertical;startArrow=openThin;startFill=0;endFill=0;strokeColor=#545B64;rounded=0;strokeWidth=3;flowAnimation=1;" parent="1" edge="1">
          <mxGeometry width="100" relative="1" as="geometry">
            <mxPoint x="220" y="230" as="sourcePoint" />
            <mxPoint x="760" y="230" as="targetPoint" />
          </mxGeometry>
        </mxCell>
        <mxCell id="DUyp_SDA0KsKm434eSB0-37" value="" style="edgeStyle=orthogonalEdgeStyle;html=1;endArrow=block;elbow=vertical;startArrow=none;endFill=1;strokeColor=#545B64;rounded=0;strokeWidth=3;entryX=0.494;entryY=1.017;entryDx=0;entryDy=0;entryPerimeter=0;flowAnimation=1;" parent="1" edge="1">
          <mxGeometry width="100" relative="1" as="geometry">
            <mxPoint x="544.33" y="263.93" as="sourcePoint" />
            <mxPoint x="544.33" y="233.93" as="targetPoint" />
            <Array as="points">
              <mxPoint x="544.33" y="289.93" />
            </Array>
          </mxGeometry>
        </mxCell>
      </root>
    </mxGraphModel>
  </diagram>
</mxfile>
